#!OML:ASF X:\für Bonn\!DataBase\2005_08_11_Bastian_Final\c3d\Bastian.ASF
:FULLY-SPECIFIED
:DEGREES
168
root 1.92399 17.8308 -5.31131 121.847 105.566 -598.283
lowerback 4.16066 -4.49744 5.5967
upperback 6.47399 -5.81867 3.67016
thorax 4.23165 -2.65382 0.736288
lowerneck -5.93918 7.97532 -9.63426
upperneck -3.83582 11.2443 0.485053
head -0.803278 5.77652 1.82325
rclavicle 2.62396e-014 5.56597e-015
rhumerus -72.3459 3.71156 -75.4263
rradius 62.7424
rwrist 6.42551
rhand -18.6936 14.3918
rfingers 7.12502
rthumb 7.60093 -15.4517
lclavicle 2.62396e-014 5.56597e-015
lhumerus -22.7378 -18.3302 92.8594
lradius 104.303
lwrist 216.917
lhand -35.1991 15.5714
lfingers 7.12502
lthumb -8.33689 45.3869
rfemur -25.5052 3.78254 23.1225
rtibia 31.3625
rfoot -22.9013 -3.56451
rtoes -28.5837
lfemur 3.75395 -3.52406 -20.3915
ltibia 63.6035
lfoot -5.53371 -1.46745
ltoes -14.5797
169
root 2.19594 17.7845 -5.21136 119.747 105.561 -599.981
lowerback 4.46684 -4.58409 5.85669
upperback 6.63136 -5.8988 3.75118
thorax 4.21031 -2.67665 0.699727
lowerneck -5.87754 8.05473 -9.71108
upperneck -4.02311 11.3455 0.384478
head -0.877387 5.83541 1.79412
rclavicle 1.22253e-014 -9.54166e-015
rhumerus -72.6804 3.34302 -75.317
rradius 64.7787
rwrist 7.20411
rhand -18.7546 14.9236
rfingers 7.12502
rthumb 7.54202 -14.9219
lclavicle 1.22253e-014 -9.54166e-015
lhumerus -23.0811 -17.5585 92.8196
lradius 103.793
lwrist 215.98
lhand -35.1313 15.6035
lfingers 7.12502
lthumb -8.27146 45.4216
rfemur -24.03 4.27112 23.4328
rtibia 29.5065
rfoot -22.8405 -3.5253
rtoes -30.0839
lfemur 2.75424 -3.19539 -19.9714
ltibia 67.2743
lfoot -5.6381 -0.916548
ltoes -13.3021
170
root 2.46182 17.7293 -5.1113 117.759 105.568 -601.541
lowerback 4.87361 -4.65756 6.05166
upperback 6.78786 -5.94991 3.82258
thorax 4.1375 -2.68867 0.696867
lowerneck -5.91658 8.12435 -9.81652
upperneck -4.15228 11.4478 0.343242
head -0.921777 5.89366 1.79527
rclavicle -1.53064e-014 -8.34896e-015
rhumerus -72.9068 3.00991 -75.3273
rradius 66.8063
rwrist 7.91136
rhand -18.9024 15.3062
rfingers 7.12502
rthumb 7.39938 -14.5444
lclavicle -1.53064e-014 -8.34896e-015
lhumerus -23.4608 -16.8301 92.7575
lradius 103.243
lwrist 215.104
lhand -34.9907 15.7565
lfingers 7.12502
lthumb -8.13581 45.5798
rfemur -22.7393 4.64515 23.7865
rtibia 28.2519
rfoot -22.7188 -3.35478
rtoes -31.2835
lfemur 1.63606 -2.86795 -19.5461
ltibia 70.9131
lfoot -5.34558 -0.456812
ltoes -11.962
171
root 2.72272 17.6641 -5.01337 115.699 105.574 -603.172
lowerback 5.34546 -4.72075 6.22755
upperback 6.94255 -5.97787 3.89179
thorax 4.02903 -2.69036 0.70753
lowerneck -5.99178 8.18457 -9.85531
upperneck -4.30851 11.5378 0.262457
head -0.961298 5.94618 1.77397
rclavicle -5.18828e-014 4.6118e-014
rhumerus -73.0186 2.82663 -75.5493
rradius 68.7751
rwrist 8.31246
rhand -19.1961 15.5091
rfingers 7.12502
rthumb 7.11589 -14.3513
lclavicle -5.18828e-014 4.6118e-014
lhumerus -23.8593 -16.2118 92.6697
lradius 102.507
lwrist 214.348
lhand -34.8551 15.95
lfingers 7.12502
lthumb -8.00496 45.7784
rfemur -21.6506 4.69771 24.2129
rtibia 27.6276
rfoot -22.4473 -2.90375
rtoes -32.7651
lfemur 0.449121 -2.62629 -19.1405
ltibia 74.4889
lfoot -4.79766 -0.00770711
ltoes -10.4071
172
root 2.97838 17.5894 -4.91576 113.61 105.595 -604.793
lowerback 5.94868 -4.77595 6.34839
upperback 7.08583 -5.97908 3.97287
thorax 3.8431 -2.68307 0.771048
lowerneck -6.05406 8.25023 -9.74198
upperneck -4.43908 11.6239 0.103965
head -0.979445 5.99349 1.70315
rclavicle 4.6615e-014 6.36111e-015
rhumerus -73.0569 2.85062 -75.9894
rradius 70.6841
rwrist 8.57046
rhand -19.7419 15.5442
rfingers 7.12502
rthumb 6.58895 -14.3333
lclavicle 4.6615e-014 6.36111e-015
lhumerus -24.3334 -15.6711 92.5703
lradius 101.624
lwrist 213.703
lhand -34.7139 16.0509
lfingers 7.12502
lthumb -7.86866 45.8844
rfemur -20.7213 4.49658 24.6984
rtibia 27.6617
rfoot -22.0121 -2.22085
rtoes -34.0049
lfemur -0.775713 -2.41091 -18.72
ltibia 77.9986
lfoot -4.50403 0.341045
ltoes -10.3903
173
root 3.22925 17.5055 -4.81915 111.505 105.623 -606.44
lowerback 6.57555 -4.818 6.45122
upperback 7.2346 -5.95803 4.04776
thorax 3.65262 -2.66489 0.838933
lowerneck -6.15926 8.31719 -9.48551
upperneck -4.54717 11.7072 -0.13582
head -0.968 6.03656 1.58652
rclavicle 4.53229e-014 -3.02153e-014
rhumerus -72.9897 3.05255 -76.6595
rradius 72.5018
rwrist 8.62744
rhand -20.4456 15.42
rfingers 7.12502
rthumb 5.90961 -14.4776
lclavicle 4.53229e-014 -3.02153e-014
lhumerus -24.8129 -15.2038 92.478
lradius 100.686
lwrist 213.024
lhand -34.5477 15.8204
lfingers 7.12502
lthumb -7.70819 45.6599
rfemur -20.0602 3.95774 25.2233
rtibia 28.3523
rfoot -21.3939 -1.32232
rtoes -35.1095
lfemur -2.09867 -2.21966 -18.2951
ltibia 81.4668
lfoot -4.54715 0.641813
ltoes -11.8486
174
root 3.47426 17.4092 -4.72282 109.495 105.649 -607.973
lowerback 7.29129 -4.83187 6.49056
upperback 7.37076 -5.88947 4.11376
thorax 3.40678 -2.62691 0.937037
lowerneck -6.22181 8.37575 -9.04042
upperneck -4.69623 11.761 -0.493442
head -0.95486 6.06346 1.40026
rclavicle -3.37934e-014 2.46493e-014
rhumerus -72.8353 3.30266 -77.3895
rradius 74.3224
rwrist 8.71525
rhand -21.1355 15.2657
rfingers 7.12502
rthumb 5.24353 -14.6494
lclavicle -3.37934e-014 2.46493e-014
lhumerus -25.354 -14.7917 92.3907
lradius 99.6228
lwrist 212.322
lhand -34.3711 15.4336
lfingers 7.12502
lthumb -7.53781 45.2793
rfemur -19.6441 3.133 25.745
rtibia 29.5991
rfoot -20.5796 -0.327875
rtoes -36.0326
lfemur -3.51652 -1.99257 -17.8636
ltibia 84.8958
lfoot -4.57488 0.782336
ltoes -12.1466
175
root 3.71401 17.2982 -4.6269 107.48 105.681 -609.525
lowerback 8.02652 -4.83241 6.5305
upperback 7.51013 -5.79873 4.18054
thorax 3.15578 -2.57711 1.03479
lowerneck -6.32453 8.42921 -8.53406
upperneck -4.8342 11.8076 -0.891594
head -0.924325 6.08546 1.1959
rclavicle -1.42131e-014 -3.57812e-015
rhumerus -72.59 3.63114 -78.1588
rradius 76.1476
rwrist 8.84258
rhand -21.7815 15.1388
rfingers 7.12502
rthumb 4.61978 -14.7908
lclavicle -1.42131e-014 -3.57812e-015
lhumerus -25.8885 -14.4051 92.3211
lradius 98.5011
lwrist 211.398
lhand -34.079 14.7853
lfingers 7.12502
lthumb -7.2558 44.6409
rfemur -19.4658 1.96281 26.2717
rtibia 31.2633
rfoot -19.674 0.655727
rtoes -36.9505
lfemur -5.13161 -1.75111 -17.3761
ltibia 88.3048
lfoot -4.63275 0.60819
ltoes -10.8305
176
root 3.95194 17.1813 -4.533 105.55 105.761 -610.99
lowerback 8.78483 -4.80891 6.64772
upperback 7.64613 -5.66579 4.238
thorax 2.88362 -2.50219 1.07857
lowerneck -6.42042 8.46109 -8.05342
upperneck -5.00603 11.8258 -1.25715
head -0.908401 6.09485 1.00657
rclavicle -3.67752e-015 1.47101e-014
rhumerus -72.2755 4.02213 -79.0288
rradius 77.9646
rwrist 9.0432
rhand -22.4009 14.9837
rfingers 7.12502
rthumb 4.0216 -14.9581
lclavicle -3.67752e-015 1.47101e-014
lhumerus -26.4255 -14.0587 92.2554
lradius 97.1813
lwrist 210.322
lhand -33.6348 14.2129
lfingers 7.12502
lthumb -6.82706 44.0828
rfemur -19.4074 0.565895 26.7994
rtibia 33.2267
rfoot -18.5917 1.78051
rtoes -36.6307
lfemur -6.92779 -1.4999 -16.8557
ltibia 91.6502
lfoot -4.69749 0.147384
ltoes -8.86877
177
root 4.18985 17.0675 -4.44417 103.54 105.845 -612.534
lowerback 9.51214 -4.78156 6.84404
upperback 7.83185 -5.52339 4.26063
thorax 2.67359 -2.41455 1.0362
lowerneck -6.65521 8.45805 -7.5086
upperneck -5.1426 11.8061 -1.66927
head -0.850429 6.08296 0.802974
rclavicle 4.67144e-014 -6.48038e-014
rhumerus -71.4413 4.3027 -79.8905
rradius 79.5733
rwrist 9.37393
rhand -22.6728 14.8845
rfingers 7.12502
rthumb 3.75907 -15.062
lclavicle 4.67144e-014 -6.48038e-014
lhumerus -26.8207 -13.6792 92.1624
lradius 95.5989
lwrist 209.004
lhand -33.1021 13.8215
lfingers 7.12502
lthumb -6.31277 43.7075
rfemur -19.4002 -0.922644 27.2593
rtibia 35.383
rfoot -17.4361 2.88496
rtoes -35.2952
lfemur -8.78724 -1.32755 -16.3896
ltibia 94.8532
lfoot -4.80771 -0.407364
ltoes -7.70748
